<svg viewBox="0 0 352 288"  version="1.1" xmlns="http://www.w3.org/2000/svg">
<g id="qubit_lines">
<path id="qubit_line:0" d="M64,64 L320,64 " stroke="black"/>
<text dominant-baseline="central" text-anchor="end" font-family="monospace" font-size="12" x="64" y="64">q0</text>
<path id="qubit_line:1" d="M64,128 L320,128 " stroke="black"/>
<text dominant-baseline="central" text-anchor="end" font-family="monospace" font-size="12" x="64" y="128">q1</text>
<path id="qubit_line:2" d="M64,192 L320,192 " stroke="black"/>
<text dominant-baseline="central" text-anchor="end" font-family="monospace" font-size="12" x="64" y="192">q2</text>
</g>
<rect x="80" y="48" width="32" height="32" stroke="black" fill="white"/>
<text dominant-baseline="central" text-anchor="middle" font-family="monospace" font-size="30" x="96" y="64">H</text>
<rect x="80" y="112" width="32" height="32" stroke="black" fill="white"/>
<text dominant-baseline="central" text-anchor="middle" font-family="monospace" font-size="30" x="96" y="128">H</text>
<rect x="80" y="176" width="32" height="32" stroke="black" fill="white"/>
<text dominant-baseline="central" text-anchor="middle" font-family="monospace" font-size="30" x="96" y="192">H</text>
<rect x="144" y="48" width="32" height="32" stroke="black" fill="pink"/>
<text dominant-baseline="central" text-anchor="middle" font-family="monospace" font-size="12" x="160" y="64">DEP<tspan baseline-shift="sub" font-size="10">1</tspan></text>
<text dominant-baseline="hanging" text-anchor="middle" font-family="monospace" font-size="10" stroke="red" x="160" y="84">0.0001</text>
<rect x="144" y="112" width="32" height="32" stroke="black" fill="pink"/>
<text dominant-baseline="central" text-anchor="middle" font-family="monospace" font-size="12" x="160" y="128">DEP<tspan baseline-shift="sub" font-size="10">1</tspan></text>
<text dominant-baseline="hanging" text-anchor="middle" font-family="monospace" font-size="10" stroke="red" x="160" y="148">0.0001</text>
<rect x="144" y="176" width="32" height="32" stroke="black" fill="pink"/>
<text dominant-baseline="central" text-anchor="middle" font-family="monospace" font-size="12" x="160" y="192">DEP<tspan baseline-shift="sub" font-size="10">1</tspan></text>
<text dominant-baseline="hanging" text-anchor="middle" font-family="monospace" font-size="10" stroke="red" x="160" y="212">0.0001</text>
<path d="M68,40 L68,32 L188,32 L188,40 " stroke="black" fill="none"/>
<path d="M68,248 L68,256 L188,256 L188,248 " stroke="black" fill="none"/>
<rect x="208" y="48" width="32" height="32" stroke="black" fill="black"/>
<text dominant-baseline="central" text-anchor="middle" font-family="monospace" font-size="30" x="224" y="64" fill="white">M</text>
<text dominant-baseline="hanging" text-anchor="middle" font-family="monospace" font-size="10" stroke="red" x="224" y="84">0.005</text>
<text text-anchor="middle" font-family="monospace" font-size="8" x="224" y="44">rec[0]</text>
<rect x="208" y="112" width="32" height="32" stroke="black" fill="black"/>
<text dominant-baseline="central" text-anchor="middle" font-family="monospace" font-size="30" x="224" y="128" fill="white">M</text>
<text dominant-baseline="hanging" text-anchor="middle" font-family="monospace" font-size="10" stroke="red" x="224" y="148">0.005</text>
<text text-anchor="middle" font-family="monospace" font-size="8" x="224" y="108">rec[1]</text>
<rect x="208" y="176" width="32" height="32" stroke="black" fill="pink"/>
<text dominant-baseline="central" text-anchor="middle" font-family="monospace" font-size="12" x="224" y="192">DEP<tspan baseline-shift="sub" font-size="10">1</tspan></text>
<text dominant-baseline="hanging" text-anchor="middle" font-family="monospace" font-size="10" stroke="red" x="224" y="212">0.0001</text>
<rect x="272" y="176" width="32" height="32" stroke="black" fill="pink"/>
<text dominant-baseline="central" text-anchor="middle" font-family="monospace" font-size="12" x="288" y="192">DEP<tspan baseline-shift="sub" font-size="10">1</tspan></text>
<text dominant-baseline="hanging" text-anchor="middle" font-family="monospace" font-size="10" stroke="red" x="288" y="212">0.002</text>
<path d="M196,40 L196,32 L316,32 L316,40 " stroke="black" fill="none"/>
<path d="M196,248 L196,256 L316,256 L316,248 " stroke="black" fill="none"/>
</svg>